<?xml version="1.0" encoding="UTF-8"?> <svg xmlns="http://www.w3.org/2000/svg" width="277" height="108" viewBox="0 0 277 108" fill="none"><g clip-path="url(#clip0_2047_3476)"><path d="M276.074 77.8154C276.074 79.102 275.024 80.1482 273.733 80.1482C272.442 80.1482 271.392 79.201 271.392 77.9144C271.392 76.6278 272.442 75.4827 273.733 75.4827C275.024 75.4827 276.074 76.5289 276.074 77.8154ZM275.89 77.8154C275.89 76.6278 274.925 75.6665 273.747 75.6665C272.57 75.6665 271.605 76.6278 271.605 77.8154C271.605 79.003 272.57 79.9644 273.747 79.9644C274.925 79.9644 275.89 79.003 275.89 77.8154ZM274.23 78.0841L274.74 79.0172H274.286L273.832 78.1689H273.435V79.0172H273.038V76.6278H273.776C274.372 76.6278 274.684 76.9954 274.684 77.3913C274.684 77.7165 274.528 77.9709 274.244 78.0841M273.421 77.773H273.79C274.102 77.773 274.272 77.6175 274.272 77.3913C274.272 77.1651 274.102 77.0096 273.79 77.0096H273.421V77.773Z" fill="#0C7CA2"></path><path d="M98.4399 80.1483H94.2686V69.5872L89.5581 77.2924H89.0899L84.3795 69.5872V80.1483H80.2224V61.9951H84.3795L89.3311 70.0538L94.2686 61.9951H98.4399V80.1483Z" fill="#0C7CA2"></path><path d="M100.639 63.7058C100.639 62.4334 101.703 61.373 102.98 61.373C104.257 61.373 105.321 62.4334 105.321 63.7058C105.321 64.9782 104.257 66.0386 102.98 66.0386C101.703 66.0386 100.639 64.9782 100.639 63.7058ZM101.036 67.1838H104.938V80.1483H101.036V67.1838Z" fill="#0C7CA2"></path><path d="M115.21 66.9292V71.3402C113.593 71.0858 111.308 71.722 111.308 74.2951V80.1623H107.407V67.1978H111.308V69.5023C111.833 67.7633 113.579 66.9292 115.21 66.9292Z" fill="#0C7CA2"></path><path d="M130.221 67.1838V80.1483H126.319V78.9324C125.454 79.9221 124.191 80.5159 122.446 80.5159C119.041 80.5159 116.232 77.5328 116.232 73.6731C116.232 69.8134 119.041 66.8303 122.446 66.8303C124.191 66.8303 125.468 67.4241 126.319 68.4138V67.1979H130.221V67.1838ZM126.319 73.659C126.319 71.7079 125.014 70.4921 123.226 70.4921C121.439 70.4921 120.133 71.7079 120.133 73.659C120.133 75.61 121.439 76.8259 123.226 76.8259C125.014 76.8259 126.319 75.61 126.319 73.659Z" fill="#0C7CA2"></path><path d="M131.682 73.6589C131.682 69.7993 134.619 66.8162 138.578 66.8162C141.103 66.8162 143.345 68.131 144.466 70.1386L141.061 72.1038C140.621 71.1989 139.685 70.6476 138.535 70.6476C136.847 70.6476 135.598 71.8634 135.598 73.6589C135.598 75.4545 136.847 76.6703 138.535 76.6703C139.685 76.6703 140.649 76.1331 141.061 75.2141L144.466 77.1652C143.345 79.1869 141.132 80.5159 138.578 80.5159C134.619 80.5159 131.682 77.5328 131.682 73.6731" fill="#0C7CA2"></path><path d="M149.744 61.2175H145.842V80.1483H149.744V61.2175Z" fill="#0C7CA2"></path><path d="M158.909 77.0379C159.974 77.0379 160.882 76.6279 161.407 76.0483L164.528 77.8296C163.251 79.5969 161.321 80.5017 158.853 80.5017C154.398 80.5017 151.645 77.5186 151.645 73.6589C151.645 69.7993 154.454 66.8162 158.569 66.8162C162.371 66.8162 165.181 69.7427 165.181 73.6589C165.181 74.2103 165.124 74.7193 165.024 75.2141H155.788C156.285 76.5572 157.476 77.0379 158.909 77.0379ZM161.307 72.3158C160.896 70.8172 159.718 70.2658 158.555 70.2658C157.079 70.2658 156.086 70.9869 155.717 72.3158H161.307Z" fill="#0C7CA2"></path><path d="M188.052 61.9951V80.1483H184.93L177.893 70.2941V80.1483H173.736V61.9951H176.857L183.88 71.8493V61.9951H188.052Z" fill="#0C7CA2"></path><path d="M196.99 77.0379C198.054 77.0379 198.962 76.6279 199.487 76.0483L202.609 77.8296C201.332 79.5969 199.402 80.5017 196.933 80.5017C192.478 80.5017 189.726 77.5186 189.726 73.6589C189.726 69.7993 192.535 66.8162 196.65 66.8162C200.452 66.8162 203.261 69.7427 203.261 73.6589C203.261 74.2103 203.204 74.7193 203.105 75.2141H193.869C194.365 76.5572 195.557 77.0379 196.99 77.0379ZM199.388 72.3158C198.976 70.8172 197.799 70.2658 196.635 70.2658C195.146 70.2658 194.167 70.9869 193.798 72.3158H199.388Z" fill="#0C7CA2"></path><path d="M209.986 70.9162V75.511C209.986 76.6279 210.951 76.7269 212.668 76.6279V80.1483C207.56 80.6714 206.085 79.1445 206.085 75.511V70.9162H203.999V67.1838H206.085V64.7237L209.986 63.5503V67.1838H212.668V70.9162H209.986Z" fill="#0C7CA2"></path><path d="M233.524 67.1836L229.367 80.1481H225.721L223.635 73.2205L221.564 80.1481H217.917L213.746 67.1836H217.917L219.79 74.1253L221.819 67.1836H225.465L227.494 74.1253L229.367 67.1836H233.524Z" fill="#0C7CA2"></path><path d="M233.524 73.6589C233.524 69.7993 236.589 66.8162 240.42 66.8162C244.25 66.8162 247.315 69.7993 247.315 73.6589C247.315 77.5186 244.236 80.5017 240.42 80.5017C236.603 80.5017 233.524 77.5186 233.524 73.6589ZM243.413 73.6589C243.413 71.821 242.108 70.6051 240.42 70.6051C238.731 70.6051 237.426 71.821 237.426 73.6589C237.426 75.4969 238.731 76.7127 240.42 76.7127C242.108 76.7127 243.413 75.4969 243.413 73.6589Z" fill="#0C7CA2"></path><path d="M256.537 66.9292V71.3402C254.92 71.0858 252.636 71.722 252.636 74.2951V80.1623H248.734V67.1978H252.636V69.5023C253.161 67.7633 254.906 66.9292 256.537 66.9292Z" fill="#0C7CA2"></path><path d="M266.299 80.1483L262.142 74.4224V80.1483H258.24V61.9951H262.142V72.8672L266.043 67.1838H270.598L265.859 73.6589L270.725 80.1483H266.299Z" fill="#0C7CA2"></path><path d="M79.4989 39.5862C79.4989 30.8066 86.0538 24.0627 95.0774 24.0627C100.511 24.0627 105.307 26.749 107.918 30.9621L102.015 34.3835C100.682 32.079 98.1136 30.7076 95.0774 30.7076C89.771 30.7076 86.3517 34.2562 86.3517 39.5862C86.3517 44.9163 89.771 48.4508 95.0774 48.4508C98.1136 48.4508 100.724 47.0935 102.015 44.7749L107.918 48.1963C105.35 52.4094 100.554 55.0956 95.0774 55.0956C86.0538 55.0956 79.4989 48.3659 79.4989 39.5721" fill="#0C7CA2"></path><path d="M131.016 41.4244V54.5161H124.603V42.3575C124.603 39.7137 122.929 38.4695 120.885 38.4695C118.53 38.4695 116.913 39.8268 116.913 42.8664V54.5161H110.486V24.6567H116.913V35.1895C118.062 33.6061 120.204 32.5881 123.028 32.5881C127.355 32.5881 131.03 35.6561 131.03 41.4102" fill="#0C7CA2"></path><path d="M133.981 27.47C133.981 25.3776 135.74 23.6245 137.826 23.6245C139.912 23.6245 141.671 25.3776 141.671 27.47C141.671 29.5625 139.912 31.3156 137.826 31.3156C135.74 31.3156 133.981 29.5625 133.981 27.47ZM134.634 33.1818H141.047V54.5019H134.634V33.1818Z" fill="#0C7CA2"></path><path d="M151.957 23.3701H145.544V54.5019H151.957V23.3701Z" fill="#0C7CA2"></path><path d="M177.978 24.6567V54.5161H171.565V52.5086C170.146 54.1344 168.061 55.1099 165.195 55.1099C159.59 55.1099 154.965 50.2041 154.965 43.8561C154.965 37.5082 159.59 32.6023 165.195 32.6023C168.061 32.6023 170.16 33.5919 171.565 35.2037V24.6709H177.978V24.6567ZM171.565 43.8561C171.565 40.6609 169.423 38.6533 166.472 38.6533C163.52 38.6533 161.378 40.6609 161.378 43.8561C161.378 47.0513 163.52 49.0589 166.472 49.0589C169.423 49.0589 171.565 47.0513 171.565 43.8561Z" fill="#0C7CA2"></path><path d="M194.734 32.7578V40.0106C192.081 39.5865 188.321 40.6468 188.321 44.8741V54.5162H181.908V33.1961H188.321V36.9851C189.172 34.1292 192.038 32.7578 194.734 32.7578Z" fill="#0C7CA2"></path><path d="M208.482 49.398C210.242 49.398 211.731 48.7052 212.597 47.7721L217.733 50.7128C215.633 53.6111 212.469 55.1097 208.411 55.1097C201.09 55.1097 196.55 50.2038 196.55 43.8559C196.55 37.5079 201.176 32.6021 207.929 32.6021C214.172 32.6021 218.797 37.4231 218.797 43.8559C218.797 44.7607 218.712 45.609 218.542 46.4149H203.346C204.155 48.6345 206.127 49.398 208.482 49.398ZM212.413 41.6362C211.732 39.1621 209.802 38.2714 207.872 38.2714C205.432 38.2714 203.8 39.4731 203.204 41.6362H212.398H212.413Z" fill="#0C7CA2"></path><path d="M242.108 41.4241V54.5159H235.695V42.3573C235.695 39.7135 234.021 38.4693 231.978 38.4693C229.623 38.4693 227.991 39.8266 227.991 42.8662V54.5159H221.578V33.1958H227.991V35.2034C229.14 33.62 231.283 32.6021 234.106 32.6021C238.433 32.6021 242.108 35.67 242.108 41.4241Z" fill="#0C7CA2"></path><path d="M249.216 37.2395H244.08L245.797 24.6567H252.636L249.216 37.2395Z" fill="#0C7CA2"></path><path d="M269.548 48.1116C269.548 53.0175 265.263 55.1099 260.652 55.1099C256.367 55.1099 253.118 53.484 251.444 50.0344L257.005 46.8675C257.559 48.4933 258.765 49.384 260.638 49.384C262.184 49.384 262.95 48.9175 262.95 48.0551C262.95 45.7082 252.423 46.9523 252.423 39.5723C252.423 34.9209 256.353 32.574 260.808 32.574C264.284 32.574 267.363 34.115 269.15 37.1405L263.674 40.0812C263.078 38.9785 262.212 38.2009 260.808 38.2009C259.701 38.2009 259.006 38.625 259.006 39.3885C259.006 41.8202 269.533 40.1943 269.533 48.0833" fill="#0C7CA2"></path><path d="M42.6951 94.9224H27.4288C26.8187 94.9224 26.3221 95.4172 26.3221 96.0251V101.454C26.3221 105.059 29.2591 107.986 32.877 107.986H37.2611C40.8791 107.986 43.816 105.059 43.816 101.454V96.0251C43.816 95.4172 43.3194 94.9224 42.7093 94.9224" fill="#0C7CA2"></path><path d="M56.8831 34.2705C56.8548 23.4266 48.8243 14.9156 38.3961 13.3321C37.3178 13.1625 36.197 13.0776 35.0619 13.0776C33.9269 13.0776 32.8202 13.1625 31.7277 13.3321C21.3137 14.9156 13.2833 23.4125 13.2407 34.2563V34.426C13.2407 38.9501 14.5886 43.7712 16.8303 48.5074C19.0578 53.2295 22.165 57.8385 25.3573 61.8395C28.8334 66.1799 32.4088 69.8275 35.0619 72.344C36.2821 71.1847 37.7151 69.7709 39.2474 68.1592C43.9578 63.2109 49.5479 56.2833 53.0666 48.974C55.436 44.0964 56.869 39.1056 56.869 34.4543C56.869 34.3977 56.869 34.3411 56.869 34.2987M70.0355 34.3411V34.5249C69.9929 41.7636 67.8647 48.564 64.9278 54.6433C61.9483 60.765 58.1175 66.2223 54.3435 70.8595C48.5973 77.9003 42.9505 83.0041 40.4818 85.1248C40.4534 85.1389 40.425 85.1672 40.4108 85.1954C40.3683 85.2237 40.3257 85.2661 40.2831 85.2944C40.2831 85.2944 40.2831 85.2944 40.2689 85.2944C39.6305 85.8175 39.2758 85.973 39.219 86.0013C36.5091 87.5706 33.104 87.4858 30.465 85.7327C30.2664 85.6055 30.011 85.4217 29.6989 85.1672C29.6847 85.153 29.6705 85.1389 29.6421 85.1248C27.9963 83.6968 24.8891 80.9258 21.2853 77.1227C16.0216 71.5382 9.63696 63.8047 5.18191 54.6433C2.25918 48.5922 0.130971 41.8343 0.0742188 34.5956C0.0742188 34.5391 0.0742188 34.4684 0.0742188 34.3411C0.0742188 16.8949 12.9144 2.96898 29.7414 0.410001C31.4724 0.14138 33.2601 0 35.0619 0C36.8638 0 38.6515 0.14138 40.3825 0.410001C57.2095 2.96898 70.0355 16.8949 70.0497 34.3553" fill="#FFCC03"></path></g><defs><clipPath id="clip0_2047_3476"><rect width="276" height="108" fill="white" transform="translate(0.0742188)"></rect></clipPath></defs></svg> 