<svg version="1.2" xmlns="http://www.w3.org/2000/svg" viewBox="0 0 344 139" width="344" height="139">
	<defs>
		<clipPath clipPathUnits="userSpaceOnUse" id="cp1">
			<path d="m0.06-0.13h667.52v139.13h-667.52z"/>
		</clipPath>
		<clipPath clipPathUnits="userSpaceOnUse" id="cp2">
			<path d="m0.06-0.13h667.52v139.13h-667.52z"/>
		</clipPath>
		<clipPath clipPathUnits="userSpaceOnUse" id="cp3">
			<path d="m0.06-0.13h667.52v139.13h-667.52z"/>
		</clipPath>
		<clipPath clipPathUnits="userSpaceOnUse" id="cp4">
			<path d="m0.06-0.13h667.52v139.13h-667.52z"/>
		</clipPath>
	</defs>
	<style>
		.s0 { fill: transparent }
		.s1 { fill: #de6e2d } 
		.s2 { fill: #21833f } 
	</style>
	<g id="Page-1">
		<g id="logo-hover">
			<g id="Group-6">
				<g id="Fill-1-Clipped">
					<g id="path-1">
					</g>
					<g id="Clip-Path: Fill-1" clip-path="url(#cp1)">
						<path id="Fill-1" fill-rule="evenodd" class="s0" d="m14.58 125.44h317v-110h-317z"/>
					</g>
				</g>
				<g id="Fill-3-Clipped">
					<g id="path-1">
					</g>
					<g id="Clip-Path: Fill-3" clip-path="url(#cp2)">
						<path id="Fill-3" fill-rule="evenodd" class="s1" d="m355.15-0.13h15.71v6.64h-9.16v126.07h9.16v6.4h-15.71v-139.11"/>
					</g>
				</g>
				<g id="Fill-4-Clipped">
					<g id="path-1">
					</g>
					<g id="Clip-Path: Fill-4" clip-path="url(#cp3)">
						<path id="Fill-4" fill-rule="evenodd" class="s1" d="m667.58 138.98h-15.71v-6.4h9.17v-126.07h-9.17v-6.64h15.71v139.11"/>
					</g>
				</g>
				<g id="Fill-5-Clipped">
					<g id="path-1">
					</g>
					<g id="Clip-Path: Fill-5" clip-path="url(#cp4)">
						<path id="Fill-5" class="s2" d="m0 139h344.43v-138.95h-344.43zm320.38-62.96q0 13.51-1.52 18.74-1.52 5.24-5.8 10.1-4.3 4.87-9.89 7.21-5.6 2.35-13.03 2.34-9.73 0.01-16.94-4.47-7.21-4.47-10.31-11.2-3.11-6.72-3.1-22.72v-51.43h17.09v55.95q0 7.48 1.31 10.57 1.31 3.11 4.32 4.96 3.01 1.86 7.27 1.86 4.5 0 7.76-2.07 3.25-2.07 4.5-5.26 1.25-3.19 1.25-12.19v-53.82h17.09zm-78.69 38.08l-9.6-56.53-19.01 56.53h-15.02l-18.84-56.53-9.83 56.53h-33.82l-7-18.44h-36.52l-7.28 18.44h-17.71l34.51-89.51h17.28l34.08 88.62 15.34-88.62h16.6l20.75 62.43 20.94-62.43h16.58l15.02 89.51zm-200.73 0h-16.92v-89.51h44.42v16.61h-27.5v16.25h27.5v16.37h-27.5zm57.35-35.05h23.95l-11.94-30.73z"/>
					</g>
				</g>
			</g>
			<path id="Fill-7" fill-rule="evenodd" class="s1" d="m403.32 31.59h-6.03v5.88h-4.38v-14.52h10.41v2.91h-6.03v2.81h6.03v2.92"/>
			<path id="Fill-8" fill-rule="evenodd" class="s1" d="m417.3 37.47h-11.04v-14.52h4.38v11.04h6.66v3.48"/>
			<path id="Fill-9" class="s1" d="m434.15 30.2q0 2.03-0.94 3.74-0.93 1.71-2.78 2.71-1.86 1.01-4.52 1.01-2.69 0-4.56-1.05-1.87-1.05-2.77-2.75-0.91-1.71-0.91-3.66 0-1.96 0.9-3.66 0.9-1.71 2.78-2.75 1.87-1.04 4.56-1.04 2.01 0 3.59 0.6 1.57 0.6 2.59 1.62 1.01 1.02 1.54 2.37 0.52 1.36 0.52 2.86zm-4.46 0q0-0.82-0.24-1.49-0.24-0.68-0.73-1.18-0.49-0.49-1.19-0.77-0.7-0.28-1.62-0.28-1.76 0-2.77 1.03-1 1.02-1 2.69 0 1.66 1.01 2.7 1.01 1.03 2.76 1.03 1.2 0 2.05-0.48 0.85-0.48 1.29-1.32 0.44-0.84 0.44-1.93z"/>
			<path id="Fill-10" class="s1" d="m450.94 37.47h-4.7l-1.15-2.58q-0.62-1.41-1.13-2.07-0.5-0.65-0.98-0.83-0.48-0.19-1.23-0.19h-0.49v5.67h-4.38v-14.52h7.45q1.8 0 2.95 0.73 1.16 0.74 1.66 1.78 0.51 1.05 0.51 1.99 0 1.11-0.42 1.87-0.43 0.75-0.9 1.1-0.47 0.35-1.06 0.66 0.7 0.41 1.16 0.97 0.46 0.56 1.24 2.27zm-5.95-9.94q0-1-0.66-1.4-0.66-0.4-2.15-0.4h-0.92v3.5h0.94q1.6 0 2.2-0.35 0.59-0.35 0.59-1.35z"/>
			<path id="Fill-11" fill-rule="evenodd" class="s1" d="m452.95 37.47h4.38v-14.52h-4.38z"/>
			<path id="Fill-12" class="s1" d="m475.93 30.47q0 2.23-0.82 3.59-0.81 1.35-1.91 2.18-1.56 1.23-4.37 1.23h-7.84v-14.52h6.04q1.36 0 2.33 0.14 0.97 0.14 1.75 0.4 0.77 0.26 1.32 0.58 0.54 0.32 0.97 0.68 0.74 0.61 1.3 1.44 0.57 0.83 0.89 1.91 0.34 1.09 0.34 2.37zm-4.46-0.19q0-1.77-0.67-2.76-0.68-0.99-1.63-1.32-0.95-0.34-1.93-0.34h-1.87v8.6h1.87q1.72 0 2.98-0.81 1.25-0.82 1.25-3.37z"/>
			<path id="Fill-13" class="s1" d="m493.65 37.47h-4.48l-1.18-2.94h-6.31l-1.21 2.94h-4.48l6.42-14.52h4.84zm-6.67-5.47l-2.13-5.3-2.15 5.3z"/>
			<path id="Fill-14" class="s1" d="m408.86 63.22h-4.48l-1.19-2.94h-6.31l-1.2 2.94h-4.49l6.43-14.52h4.84zm-6.68-5.47l-2.12-5.3-2.15 5.3z"/>
			<path id="Fill-15" class="s1" d="m424.18 62.19q-0.47 0.18-0.81 0.3-0.34 0.11-0.64 0.21-0.31 0.09-0.9 0.24-1 0.23-1.99 0.35-0.98 0.12-2.09 0.12-2.21 0-4.08-0.81-1.88-0.8-3-2.5-1.13-1.7-1.13-4.17 0-1.59 0.58-3.13 0.58-1.53 1.78-2.46 0.98-0.76 1.99-1.17 1.01-0.4 1.98-0.54 0.96-0.13 2.12-0.13 1.92 0 3.17 0.29 1.25 0.28 2.73 0.76v3.43q-0.98-0.57-2.08-0.96-1.1-0.39-2.75-0.39-1.89 0-3.03 0.72-1.13 0.72-1.58 1.71-0.45 1-0.45 1.93 0.01 1.1 0.51 2.03 0.52 0.93 1.56 1.49 1.03 0.56 2.5 0.56 0.84 0 1.78-0.22v-1.71h-1.97v-2.92h5.8z"/>
			<path id="Fill-16" class="s1" d="m441.69 63.22h-4.71l-1.14-2.58q-0.63-1.41-1.13-2.07-0.51-0.65-0.98-0.83-0.48-0.19-1.23-0.19h-0.5v5.67h-4.37v-14.52h7.45q1.8 0 2.95 0.73 1.15 0.73 1.66 1.78 0.51 1.05 0.51 1.99 0 1.1-0.43 1.86-0.42 0.76-0.89 1.11-0.47 0.34-1.06 0.66 0.7 0.41 1.16 0.97 0.45 0.56 1.24 2.27zm-5.95-9.94q0-1-0.66-1.4-0.66-0.4-2.15-0.4h-0.92v3.5h0.94q1.6 0 2.19-0.35 0.6-0.35 0.6-1.35z"/>
			<path id="Fill-17" fill-rule="evenodd" class="s1" d="m443.7 63.22h4.38v-14.52h-4.38z"/>
			<path id="Fill-18" class="s1" d="m464.75 62.13q-0.9 0.47-1.85 0.75-0.94 0.29-1.9 0.41-0.96 0.12-1.98 0.12-1.9 0-3.4-0.53-1.51-0.52-2.61-1.54-1.11-1.02-1.66-2.39-0.55-1.37-0.55-3 0-1.88 0.65-3.29 0.65-1.41 1.82-2.34 1.17-0.93 2.66-1.38 1.49-0.44 3.15-0.44 2.47 0 5.61 1.1v3.85q-1.08-0.66-2.14-1.11-1.05-0.45-2.47-0.45-1.27 0-2.37 0.51-1.1 0.5-1.77 1.43-0.68 0.93-0.67 2.18 0 1.1 0.58 2.02 0.59 0.91 1.63 1.45 1.04 0.54 2.36 0.54 1.05 0 1.99-0.25 0.95-0.26 1.59-0.57 0.64-0.32 1.33-0.75z"/>
			<path id="Fill-19" class="s1" d="m482.82 56.71q0 1.87-0.7 3.18-0.7 1.32-1.84 2.08-1.15 0.77-2.47 1.1-1.33 0.34-2.65 0.34-1.84 0-3.59-0.63-1.74-0.63-2.92-2.14-1.17-1.51-1.17-3.93v-8.01h4.37v6.88q0 1.44 0.41 2.37 0.42 0.94 1.16 1.38 0.74 0.43 1.74 0.43 0.97 0 1.71-0.43 0.75-0.43 1.16-1.36 0.41-0.93 0.41-2.37v-6.9h4.38z"/>
			<path id="Fill-20" fill-rule="evenodd" class="s1" d="m497.29 63.22h-11.03v-14.52h4.37v11.04h6.66v3.48"/>
			<path id="Fill-21" fill-rule="evenodd" class="s1" d="m510.99 52.23h-5.32v10.99h-4.37v-10.99h-5.32v-3.53h15.01v3.53"/>
			<path id="Fill-22" class="s1" d="m528.68 56.71q0 1.87-0.7 3.18-0.7 1.32-1.84 2.08-1.15 0.77-2.47 1.1-1.33 0.34-2.65 0.34-1.84 0-3.59-0.63-1.74-0.63-2.91-2.14-1.18-1.51-1.18-3.93v-8.01h4.37v6.88q0 1.44 0.42 2.37 0.41 0.94 1.15 1.38 0.74 0.43 1.74 0.43 0.97 0 1.71-0.43 0.74-0.43 1.16-1.36 0.41-0.93 0.41-2.37v-6.9h4.38z"/>
			<path id="Fill-23" class="s1" d="m546.18 63.22h-4.7l-1.15-2.58q-0.63-1.41-1.13-2.07-0.5-0.65-0.98-0.83-0.48-0.19-1.23-0.19h-0.49v5.67h-4.38v-14.52h7.45q1.8 0 2.95 0.73 1.15 0.73 1.66 1.78 0.51 1.05 0.51 1.99 0 1.1-0.42 1.86-0.43 0.76-0.9 1.11-0.47 0.34-1.06 0.66 0.7 0.41 1.16 0.97 0.46 0.56 1.24 2.27zm-5.95-9.94q0-1-0.66-1.4-0.66-0.4-2.15-0.4h-0.92v3.5h0.94q1.6 0 2.2-0.35 0.59-0.35 0.59-1.35z"/>
			<path id="Fill-24" class="s1" d="m564.12 63.22h-4.49l-1.18-2.94h-6.31l-1.21 2.94h-4.48l6.42-14.52h4.84zm-6.67-5.47l-2.13-5.3-2.15 5.3z"/>
			<path id="Fill-25" fill-rule="evenodd" class="s1" d="m577.08 63.22h-11.04v-14.52h4.38v11.04h6.66v3.48"/>
			<path id="Fill-26" class="s1" d="m591.64 48.48l6.77 14.74h-1.19l-2.32-5.06h-7.15l-2.31 5.06h-1.19l6.77-14.74zm2.83 8.74l-3.15-6.9-3.14 6.9z"/>
			<path id="Fill-27" fill-rule="evenodd" class="s1" d="m613.35 48.58v14.64h-0.93l-11.13-12.79v12.79h-1.13v-14.64h0.96l11.1 12.8v-12.8h1.13"/>
			<path id="Fill-28" class="s1" d="m616.73 48.58h5.11q3.89 0 5.94 2.05 2.04 2.04 2.04 5.28 0 3.17-2.02 5.24-2.03 2.07-5.76 2.07h-5.31zm1.12 0.94v12.75h4.13q2.83 0 4.73-1.74 1.89-1.75 1.89-4.63-0.01-2.82-1.87-4.6-1.86-1.78-4.82-1.78z"/>
			<path id="Fill-29" fill-rule="evenodd" class="s1" d="m409.8 88.97h-4.38v-8.42l-3.95 4.88h-0.34l-3.96-4.88v8.42h-4.26v-14.52h3.97l4.47 5.44 4.48-5.44h3.97v14.52"/>
			<path id="Fill-30" fill-rule="evenodd" class="s1" d="m424.42 88.97h-10.95v-14.52h10.77v2.91h-6.39v2.66h6.1v2.92h-6.1v3.11h6.57v2.92"/>
			<path id="Fill-31" class="s1" d="m440.36 87.88q-0.9 0.47-1.85 0.75-0.94 0.28-1.9 0.41-0.96 0.12-1.99 0.12-1.89 0-3.4-0.53-1.5-0.52-2.6-1.54-1.11-1.02-1.66-2.39-0.55-1.37-0.55-3 0-1.88 0.65-3.29 0.65-1.41 1.82-2.34 1.17-0.93 2.66-1.38 1.49-0.44 3.15-0.44 2.47 0 5.6 1.1v3.85q-1.07-0.67-2.13-1.11-1.05-0.45-2.48-0.45-1.26 0-2.37 0.51-1.09 0.5-1.76 1.43-0.68 0.93-0.68 2.18 0 1.1 0.59 2.02 0.59 0.91 1.63 1.45 1.04 0.54 2.35 0.54 1.06 0 2-0.25 0.95-0.26 1.59-0.58 0.64-0.31 1.33-0.74z"/>
			<path id="Fill-32" fill-rule="evenodd" class="s1" d="m458.64 88.97h-4.37v-5.67h-6.59v5.67h-4.38v-14.52h4.38v5.33h6.59v-5.33h4.37v14.52"/>
			<path id="Fill-33" class="s1" d="m478.23 88.97h-4.48l-1.19-2.94h-6.3l-1.21 2.94h-4.48l6.42-14.52h4.84zm-6.68-5.47l-2.12-5.3-2.15 5.3z"/>
			<path id="Fill-34" fill-rule="evenodd" class="s1" d="m495.93 88.97h-3.9l-7.53-8.09v8.09h-4.34v-14.52h3.89l7.51 8.04v-8.04h4.37v14.52"/>
			<path id="Fill-35" fill-rule="evenodd" class="s1" d="m499.59 88.97h4.38v-14.52h-4.38z"/>
			<path id="Fill-36" class="s1" d="m520.65 87.88q-0.9 0.47-1.85 0.75-0.94 0.28-1.9 0.41-0.96 0.12-1.99 0.12-1.89 0-3.4-0.53-1.5-0.52-2.6-1.54-1.11-1.02-1.66-2.39-0.55-1.37-0.55-3 0-1.88 0.65-3.29 0.65-1.41 1.82-2.34 1.17-0.93 2.66-1.38 1.49-0.44 3.15-0.44 2.47 0 5.6 1.1v3.85q-1.07-0.67-2.13-1.11-1.05-0.45-2.48-0.45-1.26 0-2.37 0.51-1.09 0.5-1.76 1.43-0.68 0.93-0.68 2.18 0 1.1 0.59 2.02 0.59 0.91 1.63 1.45 1.04 0.54 2.35 0.54 1.06 0 2-0.25 0.94-0.26 1.59-0.58 0.64-0.31 1.33-0.74z"/>
			<path id="Fill-37" class="s1" d="m539.54 88.97h-4.49l-1.18-2.94h-6.31l-1.21 2.94h-4.48l6.42-14.52h4.84zm-6.67-5.47l-2.13-5.3-2.15 5.3z"/>
			<path id="Fill-38" fill-rule="evenodd" class="s1" d="m552.49 88.97h-11.03v-14.52h4.38v11.04h6.65v3.48"/>
			<path id="Fill-39" class="s1" d="m408.05 108.21q0 1.87-0.7 3.18-0.7 1.32-1.85 2.08-1.14 0.77-2.47 1.1-1.32 0.34-2.65 0.34-1.84 0-3.58-0.63-1.75-0.63-2.92-2.14-1.18-1.51-1.18-3.93v-8.01h4.37v6.88q0 1.43 0.42 2.37 0.41 0.94 1.15 1.38 0.74 0.43 1.74 0.43 0.97 0 1.71-0.43 0.74-0.43 1.16-1.36 0.41-0.93 0.41-2.37v-6.9h4.39z"/>
			<path id="Fill-40" fill-rule="evenodd" class="s1" d="m427.25 114.72h-3.9l-7.54-8.09v8.09h-4.33v-14.52h3.89l7.51 8.05v-8.05h4.37v14.52"/>
			<path id="Fill-41" fill-rule="evenodd" class="s1" d="m430.92 114.72h4.38v-14.52h-4.38z"/>
			<path id="Fill-42" fill-rule="evenodd" class="s1" d="m453.17 100.2l-6.55 14.71h-2.89l-6.43-14.71h4.56l3.33 8.38 3.41-8.38h4.57"/>
			<path id="Fill-43" fill-rule="evenodd" class="s1" d="m466.11 114.72h-10.95v-14.52h10.77v2.91h-6.39v2.66h6.1v2.92h-6.1v3.1h6.57v2.93"/>
			<path id="Fill-44" class="s1" d="m483.11 114.72h-4.71l-1.14-2.58q-0.63-1.41-1.13-2.07-0.51-0.65-0.99-0.84-0.47-0.18-1.22-0.18h-0.5v5.67h-4.38v-14.52h7.45q1.81 0 2.96 0.73 1.15 0.73 1.66 1.78 0.5 1.05 0.5 1.99 0 1.1-0.42 1.86-0.42 0.76-0.89 1.11-0.47 0.35-1.06 0.66 0.7 0.41 1.16 0.97 0.45 0.56 1.24 2.26zm-5.95-9.93q-0.01-1-0.66-1.4-0.67-0.4-2.16-0.4h-0.92v3.5h0.95q1.6 0 2.19-0.35 0.6-0.35 0.6-1.35z"/>
			<path id="Fill-45" class="s1" d="m495.25 110.49q0 1.37-0.7 2.36-0.7 1-1.94 1.53-1.25 0.53-2.86 0.53-0.46 0-1.11-0.06-0.65-0.06-1.74-0.32-1.08-0.26-2.26-0.78v-3.56q1.1 0.69 2.17 1.14 1.06 0.44 2.28 0.44 1.12 0 1.45-0.37 0.33-0.37 0.33-0.69 0-0.59-0.57-1-0.56-0.4-1.64-0.83-1.2-0.5-2.1-1.09-0.9-0.59-1.47-1.48-0.57-0.89-0.57-2.11 0-1.17 0.57-2.12 0.58-0.95 1.77-1.52 1.18-0.56 2.89-0.56 1.21 0 2.24 0.23 1.04 0.24 1.71 0.53 0.67 0.3 0.92 0.46v3.41q-0.89-0.64-1.99-1.14-1.09-0.51-2.34-0.51-0.82 0-1.18 0.32-0.37 0.31-0.37 0.78 0 0.42 0.37 0.74 0.36 0.31 1.31 0.76 1.67 0.79 2.68 1.42 1.01 0.63 1.58 1.45 0.57 0.82 0.57 2.04z"/>
			<path id="Fill-46" fill-rule="evenodd" class="s1" d="m498.24 114.72h4.38v-14.52h-4.38z"/>
			<path id="Fill-47" fill-rule="evenodd" class="s1" d="m520.22 103.73h-5.33v10.99h-4.37v-10.99h-5.32v-3.53h15.02v3.53"/>
			<path id="Fill-48" fill-rule="evenodd" class="s1" d="m536.94 100.2l-5.69 7.86v6.66h-4.38v-6.57l-5.79-7.95h4.54l3.34 4.57 3.34-4.57h4.64"/>
		</g>
	</g>
</svg>