<svg version="1.2" xmlns="http://www.w3.org/2000/svg" viewBox="0 0 337 155" width="337" height="155">
	<style>
		.s0 { fill: #231f20 } 
	</style>
	<path class="s0" d="m326.7 124.81v-111.64h-28.46v104.62c-3.04 0.38-11.57 0.57-17.27 0.57-6.26 0-15.56-0.19-17.64-0.57v-104.62h-37c0 0 8.92 6.26 8.92 15.75v112.78l1.71 0.57c0.57 0.19 15.56 4.17 44.02 4.17 25.8 0 49.33-5.12 49.52-5.31l4.93-0.95c0 0-8.73-2.09-8.73-15.37zm-11.57 8.35c0 0-8.73 2.47-34.34 2.47-20.11 0-34.72-2.47-34.72-2.47v-109.17h6.07v103.67c0 0 13.47 1.9 28.65 1.9 21.82 0 28.27-1.9 28.27-1.9v-103.67h6.07z"/>
	<path class="s0" d="m61.1 8.7c-29.79 0-53.31 5.5-53.5 5.5l-4.74 1.14 3.98 2.85c4.36 3.23 6.07 6.45 6.26 11.57 0 0-0.19 96.56 0 101.69 0 4.74-1.9 7.59-6.26 11l-5.5 3.98h51.8l-5.5-3.98c0 0-6.07-5.12-5.88-11v-34.33h54.64c1.9 0.19 4.74 1.33 4.74 1.33l3.6 2.28v-35.29l-3.42 2.09c0 0-1.9 1.14-4.55 1.14h-55.02v-31.12c0 0 11.19-1.52 17.26-1.52 6.07 0 22.2 1.71 29.79 4.55 8.73 3.42 15.94 9.87 15.94 9.87v-37l-1.9-0.38c-0.19 0-18.02-4.36-41.74-4.36zm34.53 23.15c0 0-4.93-2.47-13.09-3.79-8.35-1.52-11.76-1.9-23.34-2.09-15.94-0.38-28.46 1.9-28.46 1.9v51.61h63.18v6.64h-63.18v50.46h-6.83l0.19-114.4c0 0 13.47-3.04 34.91-3.04 11.57 0 23.34 0.76 36.62 3.04 0 0 0 9.68 0 9.67z"/>
	<path class="s0" d="m215.82 125.76v-30.74c0-6.45-4.36-8.35-4.36-8.35l-59.01-36.43v-12.9c3.6-0.57 7.02-1.14 22.01-0.57 9.68 0.38 16.51 1.52 22.77 3.6 10.06 3.23 13.85 6.26 13.85 6.26l4.74 3.98-0.19-37.38-2.28-0.38c-0.76-0.19-21.82-4.17-44.21-4.17-28.27 0-48.76 5.12-49.71 5.31l-5.69 1.33 4.74 3.61c3.79 2.85 5.5 5.88 5.69 10.43l-0.19 26.37c0 8.35 6.26 11.76 6.26 11.76l57.11 35.67v14.61c-3.41 0.57-8.16 1.14-22.96 0.57-9.87-0.38-15.37-1.71-21.82-3.6-10.43-2.85-18.59-10.25-18.59-10.25v37.19l2.28 0.57c0.95 0.19 20.87 4.17 43.45 4.17 28.27 0 49.71-5.12 50.66-5.31l5.88-1.33-4.93-3.6c-3.79-2.85-5.31-5.88-5.5-10.43zm-11.01 7.21c0 0-12.9 2.85-33.01 2.85-11.19 0-24.1-0.76-36.62-2.85v-9.11c0 0 4.93 2.28 12.52 3.6 7.97 1.33 12.9 1.71 23.72 1.9 15.18 0.38 26.94-1.71 26.94-1.71v-24.85c0-5.5-5.5-8.54-5.5-8.54l-52.36-32.82c0 0-5.31-3.23-5.31-9.3v-29.98c0 0 11.76-2.85 31.87-2.85 11 0 24.85 0.76 37.57 2.85v9.11c0 0-4.74-2.28-12.33-3.6-7.97-1.52-14.04-1.71-25.04-1.9-14.99-0.38-25.8 1.71-25.8 1.71v22.58c0 5.12 5.12 7.97 5.12 7.97l53.31 33.01c0 0 4.93 2.66 4.93 8.54 0 0 0 33.39-0.01 33.39z"/>
</svg>